<?xml version="1.0" encoding="UTF-8"?>
<svg id="Layer_1" data-name="Layer 1" xmlns="http://www.w3.org/2000/svg" xmlns:xlink="http://www.w3.org/1999/xlink" viewBox="0 0 77 71">
  <defs>
    <style>
      .cls-1 {
        fill: url(#linear-gradient);
      }
    </style>
    <linearGradient id="linear-gradient" x1="23.16" y1="35.93" x2="54.39" y2="35.93" gradientUnits="userSpaceOnUse">
      <stop offset="0" stop-color="#b163dd"/>
      <stop offset="1" stop-color="#6b3ff6"/>
    </linearGradient>
  </defs>
  <path class="cls-1" d="M24.22,52.07h8.82c.24,0,.45-.09,.63-.23,3.24,.67,6.57,1.02,9.94,1.02,1.53,0,3.06-.07,4.6-.21,1.99,0,3.69-1.42,4.05-3.39l2.12-11.71c0-.06,.02-.12,.02-.18,0-1.2-.28-2.24-.86-3.11-2.19-3.2-7.66-2.57-10.6-2.24,0,0-.02,0-.03,0v-9.04c0-1.76-.97-3.25-2.46-3.79-1.32-.49-2.74-.09-3.7,1.04-.08,.1-.15,.21-.19,.33l-4.36,12.18h-7.97c-.59,0-1.06,.48-1.06,1.06v17.18c0,.59,.47,1.07,1.06,1.07h0Zm14.27-30.58c.36-.35,.79-.45,1.22-.3,.49,.18,1.06,.76,1.06,1.79v10.26c0,.31,.14,.61,.38,.81,.24,.2,.55,.29,.86,.24,.37-.06,.76-.11,1.17-.16,2.32-.27,7.13-.81,8.58,1.31,.12,.18,.48,.72,.49,1.82l-2.1,11.62c-.17,.95-.99,1.64-2.05,1.64-4.8,.43-9.51,.17-14.01-.77v-15.94s0-.03,0-.04l4.39-12.28Zm-13.2,13.39h6.69v15.06h-6.69v-15.06Z"/>
</svg>