<?xml version="1.0" encoding="UTF-8"?>
<svg id="Layer_1" data-name="Layer 1" xmlns="http://www.w3.org/2000/svg" xmlns:xlink="http://www.w3.org/1999/xlink" viewBox="0 0 77 71">
  <defs>
    <style>
      .cls-1 {
        fill: url(#linear-gradient);
        stroke: url(#linear-gradient-2);
        stroke-miterlimit: 10;
        stroke-width: .5px;
      }
    </style>
    <linearGradient id="linear-gradient" x1="19" y1="34.92" x2="56" y2="34.92" gradientUnits="userSpaceOnUse">
      <stop offset="0" stop-color="#b163dd"/>
      <stop offset="1" stop-color="#6b3ff6"/>
    </linearGradient>
    <linearGradient id="linear-gradient-2" x1="18.75" x2="56.25" xlink:href="#linear-gradient"/>
  </defs>
  <path class="cls-1" d="M41.02,53.42s-.05,0-.08,0c-.39-.04-.71-.32-.78-.7l-3.41-17.04-17.04-3.41c-.38-.08-.67-.39-.7-.78-.04-.39,.19-.75,.55-.9l35.24-14.1c.33-.13,.7-.05,.95,.2,.25,.25,.33,.62,.2,.95l-14.1,35.24c-.14,.34-.46,.55-.82,.55h0ZM22.96,31.12l14.71,2.94c.35,.07,.62,.34,.69,.69l2.94,14.71,12.23-30.58-30.58,12.23Z"/>
</svg>