<?xml version="1.0" encoding="UTF-8"?>
<svg id="Layer_1" data-name="Layer 1" xmlns="http://www.w3.org/2000/svg" xmlns:xlink="http://www.w3.org/1999/xlink" viewBox="0 0 77 71">
  <defs>
    <style>
      .cls-1 {
        fill: none;
        fill-rule: evenodd;
        stroke: url(#linear-gradient);
        stroke-miterlimit: 10;
        stroke-width: 2px;
      }
    </style>
    <linearGradient id="linear-gradient" x1="18.51" y1="34.99" x2="58.53" y2="34.99" gradientUnits="userSpaceOnUse">
      <stop offset="0" stop-color="#b163dd"/>
      <stop offset="1" stop-color="#6b3ff6"/>
    </linearGradient>
  </defs>
  <path class="cls-1" d="M57.17,31.57l-15.6-12.38c-.29-.23-.69-.28-1.02-.12-.33,.16-.55,.5-.55,.87v7c-4.75,1.36-9.63,2.79-13.47,6.04-4.46,3.78-6.76,9.47-7.02,17.4,0,.29,.2,.55,.48,.6,.04,0,.07,0,.11,.01,.25,0,.48-.16,.56-.4,3.89-11.05,13.73-13.32,19.34-12.93v7.03c0,.37,.21,.71,.55,.87,.33,.16,.73,.12,1.02-.12l15.6-12.38c.23-.18,.37-.46,.37-.76s-.13-.57-.37-.76h0Z"/>
</svg>