<?xml version="1.0" encoding="UTF-8"?>
<svg id="Layer_1" data-name="Layer 1" xmlns="http://www.w3.org/2000/svg" xmlns:xlink="http://www.w3.org/1999/xlink" viewBox="0 0 77 71">
  <defs>
    <style>
      .cls-1 {
        fill: url(#linear-gradient);
      }
    </style>
    <linearGradient id="linear-gradient" x1="22.24" y1="38" x2="55.17" y2="38" gradientUnits="userSpaceOnUse">
      <stop offset="0" stop-color="#b163dd"/>
      <stop offset="1" stop-color="#6b3ff6"/>
    </linearGradient>
  </defs>
  <path class="cls-1" d="M28.24,21h20.93c1.65,0,3.15,.67,4.24,1.76,1.09,1.09,1.76,2.59,1.76,4.24v12.72c0,1.65-.67,3.15-1.76,4.24-1.09,1.09-2.59,1.76-4.24,1.76h-8.5c-.47,0-.89,.07-1.28,.21-.39,.15-.76,.37-1.11,.67l-9.45,8.17c-.38,.33-.96,.29-1.28-.09-.15-.17-.22-.39-.22-.6h0v-5.87c0-.7-.17-1.34-.5-1.88-.33-.54-.81-1-1.42-1.33-.96-.51-1.76-1.28-2.32-2.22-.54-.9-.85-1.95-.85-3.07v-12.72c0-1.65,.67-3.15,1.76-4.24,1.09-1.09,2.59-1.76,4.24-1.76h0Zm20.93,1.83H28.24c-1.15,0-2.19,.47-2.95,1.23-.76,.76-1.23,1.8-1.23,2.95v12.72c0,.78,.22,1.51,.59,2.14,.39,.65,.95,1.18,1.62,1.54,.9,.49,1.62,1.18,2.12,2,.5,.83,.76,1.79,.76,2.81v3.88l7.94-6.86c.51-.44,1.07-.78,1.66-1,.6-.22,1.24-.34,1.91-.34h8.5c1.15,0,2.19-.47,2.95-1.23,.76-.76,1.23-1.8,1.23-2.95v-12.72c0-1.15-.47-2.19-1.23-2.95-.76-.76-1.8-1.23-2.95-1.23h0Z"/>
</svg>